<svg width="1178" height="435" viewBox="0 0 1178 435" fill="none" xmlns="http://www.w3.org/2000/svg">
<rect width="1178" height="435" fill="white"/>
<path d="M441 292H393.398V233.624L314.557 292H238L393.038 177.208H441V292Z" fill="url(#paint0_radial_2026_2)"/>
<path d="M285.602 160.376L364.443 102H441L285.962 216.792H238V102H285.602V160.376Z" fill="url(#paint1_radial_2026_2)"/>
<path d="M757.374 165.22H790.153V189.97H757.374V230.67C757.374 237.343 758.584 242.44 761.004 245.96C763.497 249.407 767.53 251.13 773.104 251.13C775.45 251.13 778.017 250.727 780.804 249.92C783.59 249.04 786.267 247.683 788.834 245.85L790.704 272.47C788.797 273.643 786.377 274.634 783.443 275.44C780.51 276.247 777.32 276.87 773.874 277.31C770.427 277.75 767.017 277.97 763.644 277.97C755.504 277.97 748.537 276.76 742.744 274.34C737.024 271.847 732.624 267.887 729.544 262.46C726.537 257.033 725.034 249.883 725.034 241.01V189.97H707.214V165.22H725.034V129.58L757.374 123.75V165.22Z" fill="#3B484B"/>
<path fill-rule="evenodd" clip-rule="evenodd" d="M654.559 162.25C663.725 162.25 671.535 163.607 677.988 166.32C684.515 168.96 689.502 173.14 692.948 178.86C696.395 184.58 698.118 192.06 698.118 201.3V275H670.068L667.979 260.37H665.448C663.468 263.157 660.974 265.907 657.968 268.62C654.961 271.26 651.368 273.424 647.188 275.11C643.082 276.797 638.388 277.64 633.108 277.64C626.802 277.64 621.302 276.32 616.608 273.68C611.915 271.04 608.248 267.337 605.608 262.57C602.968 257.73 601.648 252.01 601.648 245.41C601.648 239.177 602.748 233.97 604.948 229.79C607.148 225.537 609.971 222.09 613.418 219.45C616.938 216.81 620.752 214.794 624.858 213.4C629.038 212.007 633.108 210.98 637.068 210.32L667.648 205.59C667.795 201.337 666.988 198.037 665.229 195.69C663.469 193.27 660.902 191.583 657.528 190.63C654.228 189.677 650.268 189.2 645.648 189.2C643.155 189.2 640.441 189.42 637.508 189.86C634.575 190.227 631.495 190.814 628.269 191.62C625.115 192.427 621.815 193.417 618.368 194.59C614.995 195.763 611.584 197.193 608.138 198.88L606.598 170.83C609.311 169.877 612.428 168.887 615.948 167.86C619.468 166.834 623.281 165.917 627.388 165.11C631.494 164.23 635.822 163.533 640.368 163.02C644.988 162.506 649.719 162.25 654.559 162.25ZM666.769 220.44C665.889 221.1 664.752 221.723 663.358 222.31C662.038 222.823 660.058 223.41 657.418 224.07C654.851 224.657 651.258 225.427 646.638 226.38C643.998 226.893 641.725 227.773 639.818 229.02C637.912 230.266 636.409 231.88 635.309 233.86C634.282 235.767 633.769 238.04 633.769 240.68C633.769 244.86 635.015 247.83 637.508 249.59C640.074 251.35 642.972 252.23 646.198 252.23C648.765 252.23 651.332 251.643 653.898 250.47C656.465 249.223 658.848 247.5 661.048 245.3C663.248 243.026 665.155 240.35 666.769 237.27V220.44Z" fill="#3B484B"/>
<path fill-rule="evenodd" clip-rule="evenodd" d="M850.401 162.25C859.568 162.25 867.378 163.607 873.831 166.32C880.358 168.96 885.344 173.14 888.791 178.86C892.238 184.58 893.961 192.06 893.961 201.3V275H865.911L863.821 260.37H861.291C859.311 263.157 856.818 265.907 853.812 268.62C850.805 271.26 847.211 273.424 843.031 275.11C838.925 276.797 834.231 277.64 828.951 277.64C822.645 277.64 817.145 276.32 812.451 273.68C807.758 271.04 804.091 267.337 801.451 262.57C798.811 257.73 797.491 252.01 797.491 245.41C797.491 239.177 798.591 233.97 800.791 229.79C802.991 225.537 805.814 222.09 809.261 219.45C812.781 216.81 816.595 214.794 820.701 213.4C824.881 212.007 828.951 210.98 832.911 210.32L863.491 205.59C863.638 201.337 862.831 198.037 861.071 195.69C859.311 193.27 856.744 191.583 853.371 190.63C850.071 189.677 846.111 189.2 841.491 189.2C838.998 189.2 836.285 189.42 833.352 189.86C830.418 190.227 827.338 190.813 824.111 191.62C820.958 192.427 817.658 193.417 814.211 194.59C810.838 195.763 807.428 197.193 803.981 198.88L802.441 170.83C805.155 169.877 808.271 168.887 811.791 167.86C815.311 166.834 819.125 165.917 823.231 165.11C827.338 164.23 831.664 163.533 836.211 163.02C840.831 162.506 845.561 162.25 850.401 162.25ZM862.611 220.44C861.731 221.1 860.594 221.723 859.201 222.31C857.881 222.823 855.901 223.41 853.261 224.07C850.694 224.657 847.101 225.427 842.481 226.38C839.842 226.893 837.568 227.773 835.661 229.02C833.754 230.266 832.251 231.88 831.151 233.86C830.125 235.767 829.611 238.04 829.611 240.68C829.611 244.86 830.858 247.83 833.352 249.59C835.918 251.35 838.814 252.23 842.041 252.23C844.608 252.23 847.175 251.643 849.741 250.47C852.308 249.223 854.691 247.5 856.891 245.3C859.091 243.026 860.998 240.35 862.611 237.27V220.44Z" fill="#3B484B"/>
<path d="M520.42 209.33H526.36L537.25 193.71C540.623 189.017 543.96 184.286 547.26 179.52C550.633 174.68 553.97 169.913 557.27 165.22H595.44C590.16 171.893 584.917 178.493 579.71 185.02C574.503 191.546 569.297 198.11 564.09 204.71L553.479 217.953L566.29 234.96C571.643 241.633 576.96 248.343 582.24 255.09C587.52 261.763 592.8 268.4 598.08 275H557.82C554.594 270.453 551.33 265.943 548.03 261.47C544.73 256.996 541.467 252.56 538.24 248.16L525.81 231.11H520.42V275H487.53V113.74L520.42 110.88V209.33Z" fill="#3B484B"/>
<defs>
<radialGradient id="paint0_radial_2026_2" cx="0" cy="0" r="1" gradientUnits="userSpaceOnUse" gradientTransform="translate(258 119.273) rotate(90) scale(157.1 167.848)">
<stop stop-color="#5CD5DE"/>
<stop offset="1" stop-color="#0D5E7B"/>
</radialGradient>
<radialGradient id="paint1_radial_2026_2" cx="0" cy="0" r="1" gradientUnits="userSpaceOnUse" gradientTransform="translate(258 119.273) rotate(90) scale(157.1 167.848)">
<stop stop-color="#5CD5DE"/>
<stop offset="1" stop-color="#0D5E7B"/>
</radialGradient>
</defs>
</svg>
